<svg width="163" height="116" viewBox="0 0 163 116" fill="none" xmlns="http://www.w3.org/2000/svg">
<path d="M140.009 7.09106H7.05176V97.9642H140.009V7.09106Z" fill="white"/>
<path d="M140.009 98.6578H7.05209C6.6667 98.6578 6.3584 98.3495 6.3584 97.9641V7.09103C6.3584 6.70565 6.6667 6.39734 7.05209 6.39734H140.009C140.394 6.39734 140.703 6.70565 140.703 7.09103V97.9641C140.703 98.3495 140.394 98.6578 140.009 98.6578ZM7.74577 97.2704H139.315V7.78471H7.74577V97.2704Z" fill="#093F68"/>
<path d="M140.009 7.09106H7.05176V19.0379H140.009V7.09106Z" fill="#091E42"/>
<path d="M140.009 19.7316H7.05209C6.6667 19.7316 6.3584 19.4233 6.3584 19.0379V7.09103C6.3584 6.70565 6.6667 6.39734 7.05209 6.39734H140.009C140.394 6.39734 140.703 6.70565 140.703 7.09103V19.0379C140.703 19.4233 140.394 19.7316 140.009 19.7316ZM7.74577 18.3442H139.315V7.82325H7.74577V18.3442Z" fill="#093F68"/>
<path d="M17.9195 15.0299C19.005 15.0299 19.885 14.1499 19.885 13.0644C19.885 11.979 19.005 11.099 17.9195 11.099C16.8341 11.099 15.9541 11.979 15.9541 13.0644C15.9541 14.1499 16.8341 15.0299 17.9195 15.0299Z" fill="#F56132"/>
<path d="M17.9199 15.7235C16.4554 15.7235 15.2607 14.5289 15.2607 13.0644C15.2607 11.6 16.4554 10.4053 17.9199 10.4053C19.3843 10.4053 20.579 11.6 20.579 13.0644C20.579 14.5289 19.3843 15.7235 17.9199 15.7235ZM17.9199 11.7927C17.2262 11.7927 16.6481 12.3707 16.6481 13.0644C16.6481 13.7581 17.2262 14.3362 17.9199 14.3362C18.6136 14.3362 19.1916 13.7581 19.1916 13.0644C19.1916 12.3707 18.6136 11.7927 17.9199 11.7927Z" fill="#093F68"/>
<path d="M25.3961 15.0299C26.4816 15.0299 27.3616 14.1499 27.3616 13.0644C27.3616 11.979 26.4816 11.099 25.3961 11.099C24.3106 11.099 23.4307 11.979 23.4307 13.0644C23.4307 14.1499 24.3106 15.0299 25.3961 15.0299Z" fill="#FFBC0E"/>
<path d="M25.3964 15.7235C23.932 15.7235 22.7373 14.5289 22.7373 13.0644C22.7373 11.6 23.932 10.4053 25.3964 10.4053C26.8609 10.4053 28.0556 11.6 28.0556 13.0644C28.0556 14.5289 26.8609 15.7235 25.3964 15.7235ZM25.3964 11.7927C24.7028 11.7927 24.1247 12.3707 24.1247 13.0644C24.1247 13.7581 24.7028 14.3362 25.3964 14.3362C26.0901 14.3362 26.6682 13.7581 26.6682 13.0644C26.6682 12.3707 26.0901 11.7927 25.3964 11.7927Z" fill="#093F68"/>
<path d="M32.8727 15.0299C33.9582 15.0299 34.8381 14.1499 34.8381 13.0644C34.8381 11.979 33.9582 11.099 32.8727 11.099C31.7872 11.099 30.9072 11.979 30.9072 13.0644C30.9072 14.1499 31.7872 15.0299 32.8727 15.0299Z" fill="#70CC40"/>
<path d="M32.873 15.7235C31.4086 15.7235 30.2139 14.5289 30.2139 13.0644C30.2139 11.6 31.4086 10.4053 32.873 10.4053C34.3375 10.4053 35.5321 11.6 35.5321 13.0644C35.5321 14.5289 34.3375 15.7235 32.873 15.7235ZM32.873 11.7927C32.1793 11.7927 31.6012 12.3707 31.6012 13.0644C31.6012 13.7581 32.1793 14.3362 32.873 14.3362C33.5667 14.3362 34.1448 13.7581 34.1448 13.0644C34.1448 12.3707 33.5667 11.7927 32.873 11.7927Z" fill="#093F68"/>
<path d="M68.482 27.6704H17.9199V32.2565H68.482V27.6704Z" fill="#093F68"/>
<path d="M68.4438 32.9887H17.9203C17.5349 32.9887 17.2266 32.6804 17.2266 32.295V27.7089C17.2266 27.3236 17.5349 27.0153 17.9203 27.0153H68.4824C68.8678 27.0153 69.1761 27.3236 69.1761 27.7089V32.295C69.1375 32.6804 68.8292 32.9887 68.4438 32.9887ZM18.6139 31.5628H67.7502V28.3641H18.6139V31.5628Z" fill="#093F68"/>
<path d="M68.482 38.808H17.9199V43.394H68.482V38.808Z" fill="#093F68"/>
<path d="M68.4438 44.0877H17.9203C17.5349 44.0877 17.2266 43.7794 17.2266 43.394V38.8079C17.2266 38.4226 17.5349 38.1143 17.9203 38.1143H68.4824C68.8678 38.1143 69.1761 38.4226 69.1761 38.8079V43.394C69.1375 43.7794 68.8292 44.0877 68.4438 44.0877ZM18.6139 42.7003H67.7502V39.5016H18.6139V42.7003Z" fill="#093F68"/>
<path d="M39.1159 49.907H17.9199V54.493H39.1159V49.907Z" fill="#093F68"/>
<path d="M39.1163 55.2253H17.9203C17.5349 55.2253 17.2266 54.9169 17.2266 54.5316V49.9455C17.2266 49.5601 17.5349 49.2518 17.9203 49.2518H39.1163C39.5016 49.2518 39.81 49.5601 39.81 49.9455V54.5316C39.81 54.9169 39.5016 55.2253 39.1163 55.2253ZM18.6139 53.7993H38.4226V50.6007H18.6139V53.7993Z" fill="#093F68"/>
<path d="M129.102 35.6864H77.6536C77.2683 35.6864 76.96 35.378 76.96 34.9927V27.7089C76.96 27.3236 77.2683 27.0153 77.6536 27.0153H129.102C129.488 27.0153 129.796 27.3236 129.796 27.7089V34.9927C129.796 35.3395 129.488 35.6864 129.102 35.6864ZM78.3473 34.2604H128.408V28.3641H78.3859L78.3473 34.2604Z" fill="#DFEAEF"/>
<path d="M84.4757 84.0904C84.784 82.7801 84.1289 81.4313 82.9342 80.8147C81.9322 80.3137 80.8531 79.8512 79.8126 79.3888C79.5043 79.2731 79.3116 79.0034 79.3116 78.6951C79.196 77.7316 79.0804 76.7682 78.9262 75.8432C78.8491 75.612 78.9262 75.3422 79.1575 75.1881C80.0438 74.4559 80.9688 73.7236 81.8166 72.9143C82.8186 71.9894 83.0883 70.525 82.4717 69.3303C81.7395 67.9814 80.9302 66.6711 80.1594 65.3223C79.3887 63.8193 77.6159 63.2027 76.0744 63.8579C75.1109 64.2047 74.1475 64.5901 73.184 64.9755C72.9528 65.0911 72.683 65.0525 72.4903 64.8598C71.681 64.2047 70.8332 63.5881 69.9854 62.9715C69.7541 62.8559 69.6385 62.5861 69.6771 62.3549C69.7927 61.3143 69.8697 60.2738 69.9468 59.2333C70.101 57.7303 69.1761 56.3044 67.7116 55.8804C66.1701 55.4565 64.6285 55.0326 63.087 54.6858C61.7382 54.3775 60.3508 55.0326 59.7342 56.2658C59.1947 57.3064 58.7322 58.424 58.2312 59.503C58.1541 59.7343 57.9229 59.8884 57.6917 59.8884C56.6897 60.004 55.6877 60.1582 54.7242 60.3123C54.493 60.3894 54.2232 60.3123 54.1076 60.0811C53.3754 59.1947 52.6432 58.3084 51.9109 57.4605C51.0246 56.42 49.5216 56.1502 48.2884 56.7668C46.8239 57.5376 45.398 58.3854 44.0106 59.2718C42.6232 60.1582 42.1993 61.6226 42.7774 63.1642C43.1628 64.2047 43.5482 65.2067 43.9335 66.2472C43.9721 66.4014 43.9335 66.5555 43.8565 66.7097C43.2399 67.5961 42.5847 68.4439 41.9296 69.2917C41.8139 69.4074 41.6598 69.4844 41.5056 69.4844C40.4651 69.4074 39.4246 69.3303 38.384 69.2147C36.804 69.0605 35.3781 69.9084 34.9541 71.3343C34.4917 72.9143 34.0678 74.5329 33.7209 76.1515C33.4511 77.4618 34.0678 78.8107 35.2624 79.4273C36.3415 79.9668 37.4591 80.4678 38.5767 80.9688C38.808 81.0459 38.9621 81.2771 38.9621 81.5084C39.0777 82.5103 39.2319 83.5123 39.4246 84.5529C39.5016 84.7841 39.4246 85.0153 39.2319 85.1309C38.4226 85.7861 37.5747 86.4798 36.7654 87.1735C35.4937 88.1755 35.1854 89.9868 36.0717 91.3356C36.804 92.5688 37.4977 93.802 38.2299 95.0353C39.1548 96.5768 40.6193 97.0393 42.3149 96.4226C43.3169 96.0373 44.3189 95.6519 45.2824 95.2665C45.4751 95.1894 45.6678 95.228 45.8219 95.3436C46.5927 95.9216 47.3634 96.5383 48.1342 97.0778C48.404 97.2319 48.5196 97.5402 48.4425 97.81C48.3269 98.8505 48.2498 99.8911 48.1727 100.893C48.0186 102.358 48.8664 103.745 50.2538 104.207C51.8724 104.67 53.491 105.094 55.1482 105.479C56.4585 105.749 57.8073 105.094 58.4239 103.899C58.9634 102.859 59.3874 101.779 59.8883 100.739C59.9654 100.469 60.2352 100.276 60.505 100.276C61.507 100.161 62.509 100.007 63.5109 99.8525C63.7422 99.7755 63.9734 99.8525 64.089 100.045C64.7827 100.855 65.4764 101.664 66.1315 102.512C66.594 103.09 67.2491 103.475 67.9814 103.668C68.6751 103.822 69.3688 103.745 69.9854 103.398C71.2957 102.666 72.606 101.895 73.9163 101.124C75.4963 100.199 76.0359 98.6964 75.4192 96.9622C75.0724 95.9987 74.687 95.0353 74.3016 94.0718C74.186 93.8791 74.2246 93.6094 74.3787 93.4552L76.2285 91.0273C76.3442 90.7961 76.6139 90.719 76.8452 90.7575C77.8857 90.8731 78.9262 90.9502 79.9668 91.0273C81.4697 91.22 82.8957 90.2951 83.3581 88.8306C83.7435 87.2891 84.0903 85.709 84.4757 84.0904ZM56.3043 90.7961C50.408 89.2545 46.8624 83.204 48.404 77.3077C49.9455 71.4113 55.996 67.8658 61.8923 69.4074C67.7887 70.9489 71.3342 76.9994 69.7927 82.8957C68.2126 88.7921 62.2006 92.3376 56.3043 90.7961Z" fill="#EBECF0"/>
<path d="M55.7264 106.327C55.4566 106.327 55.2254 106.288 54.9942 106.25C53.3756 105.864 51.757 105.44 50.0613 104.978C48.3271 104.4 47.248 102.666 47.4407 100.854V100.662C47.5178 99.6983 47.5948 98.7348 47.7105 97.7714C47.7105 97.7714 47.7105 97.7714 47.7105 97.7328C47.1709 97.3475 46.6699 96.9621 46.1689 96.5767L45.4752 96.0757C44.5503 96.4611 43.5869 96.8079 42.6234 97.1933C40.5423 97.9641 38.6925 97.3474 37.6134 95.4976C37.2281 94.881 36.8812 94.2644 36.5344 93.6478C36.1875 93.0312 35.8021 92.4146 35.4553 91.798C34.3762 90.1023 34.7616 87.8671 36.3417 86.6338C37.151 85.9401 37.9603 85.2465 38.6925 84.6684C38.4998 83.6279 38.3457 82.6644 38.2301 81.7009C37.1124 81.1999 35.9948 80.6989 34.9543 80.1594C33.4513 79.3886 32.642 77.693 32.9889 76.0358C33.2972 74.4943 33.7211 72.9142 34.2221 71.1415C34.7231 69.3687 36.4958 68.2897 38.4613 68.4823C39.4633 68.598 40.4653 68.675 41.4287 68.7521C42.0068 67.9813 42.6234 67.2106 43.1629 66.4013L42.6234 65.0139C42.4307 64.5129 42.238 63.9734 42.0453 63.4724C41.3131 61.584 41.9297 59.7342 43.5869 58.6551C45.1284 57.6531 46.5543 56.8438 47.9031 56.1116C49.4447 55.3023 51.333 55.6877 52.4892 56.998C53.2214 57.8458 53.9536 58.7322 54.6473 59.58C55.5337 59.4259 56.5357 59.2717 57.5377 59.1561C57.6918 58.8092 57.846 58.4624 58.0002 58.1156C58.3085 57.3833 58.6553 56.6511 59.0407 55.9189C59.8114 54.3388 61.5842 53.5295 63.2799 53.9534C64.8214 54.3003 66.4015 54.7242 67.943 55.1481C69.7543 55.6877 70.949 57.4219 70.7563 59.3102C70.6792 60.3122 70.6021 61.3142 70.4865 62.3548C71.2958 62.9714 72.1822 63.588 72.9915 64.2431C73.9164 63.8578 74.8799 63.4724 75.8433 63.1255C77.7317 62.3162 79.9669 63.087 80.8918 64.9754C81.1616 65.4378 81.4699 65.9388 81.7397 66.4784C82.2021 67.2877 82.7031 68.1355 83.1656 68.9833C83.9364 70.4863 83.6281 72.3747 82.3563 73.5308C81.6626 74.186 80.8918 74.8026 80.1596 75.4192L79.6972 75.8046C79.8513 76.7295 79.9669 77.693 80.0825 78.6564C80.0825 78.695 80.0825 78.7335 80.0825 78.772H80.1211L80.6992 79.0418C81.547 79.4272 82.4334 79.8126 83.2427 80.198C84.7842 80.9687 85.555 82.6644 85.1696 84.3601C84.7842 85.9787 84.3988 87.5588 84.0134 89.1003V89.1388C83.4739 90.9501 81.7011 92.1063 79.8128 91.875C78.8108 91.7979 77.7703 91.7209 76.7297 91.6053L74.957 93.9176C75.3423 94.8425 75.7277 95.8059 76.0746 96.7694C76.8068 98.8504 76.1131 100.739 74.2247 101.856C72.9144 102.627 71.6041 103.398 70.2938 104.13C69.5231 104.554 68.5982 104.67 67.7503 104.477C66.8639 104.246 66.0546 103.745 65.4766 103.051C64.8599 102.242 64.1663 101.432 63.5111 100.7C62.5091 100.854 61.5071 101.009 60.5437 101.124V101.163C60.351 101.587 60.1583 102.011 59.9656 102.434C59.6958 103.051 59.4261 103.706 59.0792 104.323C58.4626 105.518 57.1523 106.327 55.7264 106.327ZM49.1749 97.9255C49.0593 98.889 48.9822 99.8139 48.9437 100.739V100.932C48.7895 102.049 49.4447 103.09 50.4852 103.436C52.1423 103.899 53.7224 104.323 55.341 104.708C56.3045 104.901 57.3065 104.4 57.7689 103.514C58.0772 102.935 58.347 102.319 58.6168 101.702C58.8095 101.278 59.0021 100.854 59.1948 100.431C59.3875 99.891 59.8885 99.5056 60.4666 99.4671C61.43 99.3514 62.3935 99.1973 63.357 99.0431C63.858 98.9275 64.3975 99.1202 64.7058 99.5056C65.3995 100.315 66.0932 101.124 66.7483 101.972C67.1337 102.396 67.6347 102.704 68.1742 102.858C68.6752 102.974 69.1762 102.897 69.6002 102.666C70.9104 101.933 72.2207 101.163 73.531 100.392C74.8413 99.6212 75.1882 98.5421 74.6872 97.1548C74.3404 96.2298 73.955 95.2664 73.6081 94.3415C73.3769 93.879 73.454 93.3009 73.7623 92.9156L75.5736 90.5647C75.8433 90.1023 76.3829 89.871 76.9224 89.9481C77.9244 90.0637 79.0035 90.1408 80.0055 90.2179H80.044C81.1616 90.3335 82.2407 89.6783 82.5875 88.5607C82.9729 87.0192 83.3583 85.4391 83.7437 83.8591C83.9749 82.8956 83.4739 81.8936 82.5875 81.4312C81.8168 81.0458 80.9304 80.6604 80.1211 80.275L79.543 80.0053C78.9649 79.774 78.5795 79.273 78.5795 78.6564C78.4639 77.7315 78.3483 76.8066 78.1942 75.9202C78.04 75.3807 78.2712 74.8026 78.7337 74.4943L79.1962 74.1089C79.9284 73.5308 80.6606 72.9142 81.3158 72.2591C82.0865 71.6039 82.2792 70.4863 81.8168 69.5999C81.3928 68.7906 80.8918 67.9428 80.4294 67.1335C80.1211 66.6325 79.8128 66.1315 79.543 65.592C78.9649 64.4358 77.6161 63.9348 76.4214 64.4358H76.3058C75.3809 64.7827 74.3789 65.1681 73.454 65.5534C72.953 65.7847 72.3364 65.7076 71.951 65.3222C71.1802 64.7056 70.3324 64.089 69.5616 63.5109C69.0992 63.2411 68.8294 62.7016 68.9065 62.1621C69.0221 61.1215 69.0992 60.081 69.1762 59.079C69.2918 57.9229 68.5982 56.8438 67.4806 56.5355C65.9776 56.1116 64.436 55.6877 62.8945 55.3408C61.8925 55.071 60.852 55.572 60.351 56.497C60.0041 57.1906 59.6573 57.9229 59.349 58.6166C59.1948 58.9634 59.0407 59.3488 58.8865 59.6956C58.6938 60.1966 58.2314 60.5435 57.6918 60.5435C56.6898 60.6591 55.6879 60.8132 54.84 60.9289C54.3005 61.083 53.7609 60.8518 53.4526 60.4279C52.759 59.58 51.9882 58.6936 51.2945 57.8458C50.6394 57.075 49.5217 56.8438 48.5968 57.3448C47.2865 58.0385 45.8992 58.8478 44.3962 59.8112C43.3171 60.5049 43.0088 61.5455 43.4712 62.7787C43.6639 63.3182 43.8566 63.8192 44.0493 64.3202C44.242 64.8212 44.4347 65.3607 44.6274 65.8617C44.6274 65.9003 44.6659 65.9003 44.6659 65.9388C44.743 66.3242 44.7045 66.7096 44.4732 67.0179C43.8181 67.9428 43.1629 68.7906 42.5078 69.6385C42.4693 69.677 42.4693 69.677 42.4307 69.7156C42.161 69.9853 41.7756 70.1395 41.3902 70.1395C40.3497 70.0624 39.3091 69.9853 38.2301 69.8697C37.1124 69.7156 35.9948 70.3707 35.6095 71.4498C35.1085 73.1455 34.7231 74.7255 34.3762 76.2285C34.1835 77.192 34.646 78.194 35.5324 78.6564C36.5729 79.196 37.6905 79.697 38.7696 80.1594C39.2706 80.3521 39.6174 80.8146 39.6174 81.3541C39.733 82.279 39.8872 83.2425 40.0413 84.283C40.157 84.784 40.0028 85.3235 39.5789 85.6704C38.8467 86.2484 37.9988 86.9807 37.151 87.6744C36.1875 88.4066 35.9563 89.794 36.6114 90.8345C36.9968 91.4897 37.3437 92.1063 37.7291 92.7229C38.1144 93.3395 38.4227 93.9561 38.8081 94.5727C39.5403 95.7674 40.5809 96.1142 41.9683 95.6132C42.9702 95.2279 43.9337 94.8425 44.8972 94.4571C45.3211 94.2644 45.8606 94.3415 46.2075 94.6498C46.4387 94.8425 46.7085 95.0352 46.9397 95.2279C47.4407 95.6132 47.9417 95.9986 48.4427 96.3455C49.0593 96.6538 49.3676 97.3089 49.1749 97.9255ZM59.0792 91.9521C58.0772 91.9521 57.0752 91.8365 56.0732 91.5667C49.753 89.9096 45.9762 83.4737 47.6334 77.1534C49.2905 70.8332 55.7264 67.0564 62.0467 68.7136C68.3669 70.3707 72.1437 76.8066 70.4865 83.1269C69.1762 88.3295 64.4746 91.9521 59.0792 91.9521ZM56.4972 90.0637C62.0081 91.4897 67.5962 88.2139 69.0221 82.7029C70.448 77.192 67.1722 71.6039 61.6613 70.178C56.1889 68.7521 50.5623 72.0279 49.1364 77.5388C47.7105 83.0112 50.9862 88.6378 56.4972 90.0637Z" fill="#093F68"/>
<path d="M155.348 72.2592C155.27 70.4479 153.999 68.9063 152.226 68.4824C150.723 68.1356 149.181 67.9043 147.678 67.6731C147.255 67.6346 146.908 67.3648 146.792 66.9409C146.33 65.7462 145.829 64.5515 145.289 63.3568C145.096 63.0485 145.135 62.7017 145.366 62.4319C146.291 61.1602 147.216 59.9269 148.064 58.6166C149.066 57.1136 148.912 55.1097 147.717 53.7608C146.33 52.2193 144.827 50.7934 143.362 49.3289C141.666 47.6332 139.508 47.4406 137.543 48.7894C136.387 49.5987 135.269 50.408 134.152 51.2173C133.882 51.4485 133.496 51.4871 133.227 51.2944C131.955 50.7163 130.645 50.1768 129.334 49.6758C128.987 49.5987 128.756 49.3289 128.756 48.9821L128.062 44.82C127.754 42.7774 126.058 41.2744 124.016 41.1974C121.858 41.1588 119.738 41.1588 117.58 41.1974C115.692 41.2359 114.073 42.5462 113.688 44.396C113.341 45.9376 113.11 47.5176 112.84 49.0977C112.801 49.4445 112.57 49.7143 112.262 49.7914C110.99 50.2924 109.757 50.8319 108.524 51.3715C108.254 51.5256 107.907 51.5256 107.676 51.2944C106.443 50.3695 105.209 49.4445 103.899 48.5967C102.357 47.5562 100.354 47.7103 98.9661 48.905C97.3475 50.408 95.7289 51.9495 94.2259 53.5681C92.7229 55.1867 92.6844 57.2293 93.9562 59.0406L96.4997 62.6246C96.6153 62.8173 96.6538 63.0485 96.5768 63.2798C96.0758 64.6286 95.5362 65.9774 94.9582 67.2877C94.8425 67.4804 94.6884 67.6346 94.4572 67.7117C93.0698 67.9814 91.6824 68.2126 90.295 68.4053C88.214 68.7522 86.6339 70.3323 86.5568 72.3362C86.4798 74.5715 86.4798 76.8067 86.5568 79.0419C86.6339 80.8532 87.9057 82.3562 89.6399 82.7801C91.22 83.1269 92.8386 83.3967 94.4572 83.6665C94.7655 83.705 95.0352 83.8977 95.1123 84.206C95.6133 85.4778 96.1528 86.7495 96.7309 87.9827C96.8851 88.2525 96.8465 88.5608 96.6538 88.792C95.806 89.9482 94.9582 91.1043 94.1488 92.2605C92.8386 94.1489 93.0312 96.2685 94.6499 97.8871C95.9987 99.2744 97.3475 100.623 98.7349 101.972C100.469 103.668 102.55 103.783 104.516 102.396C105.672 101.587 106.866 100.739 107.984 99.8911C108.215 99.6984 108.524 99.6984 108.755 99.814C109.95 100.315 111.144 100.854 112.339 101.278C112.724 101.394 112.994 101.741 112.994 102.126C113.187 103.514 113.418 104.862 113.688 106.25C114.035 108.254 115.576 109.795 117.542 109.834C119.815 109.911 122.051 109.911 124.324 109.834C126.136 109.757 127.677 108.447 128.062 106.674C128.409 105.132 128.641 103.591 128.872 102.049C128.91 101.664 129.142 101.356 129.527 101.24C130.799 100.777 132.032 100.238 133.265 99.6984C133.535 99.5442 133.843 99.5827 134.074 99.7754C135.231 100.623 136.387 101.433 137.543 102.28C138.352 102.858 139.354 103.167 140.356 103.128C141.281 103.128 142.167 102.743 142.861 102.126C144.326 100.739 145.752 99.2744 147.216 97.8485C148.989 96.1143 149.143 93.9562 147.755 91.9136C146.946 90.7575 146.137 89.6399 145.328 88.5223C145.135 88.2911 145.096 87.9827 145.251 87.713C145.79 86.4412 146.33 85.208 146.831 83.8977C146.946 83.5894 147.216 83.3582 147.563 83.3196C148.95 83.1269 150.338 82.8957 151.725 82.6259C153.767 82.3562 155.309 80.6605 155.386 78.618C155.463 76.691 155.463 74.4558 155.348 72.2592ZM120.933 90.4492C112.686 90.3721 106.019 83.705 106.134 75.5734C106.173 67.3648 112.801 60.7362 121.01 60.7748C129.219 60.8133 135.847 67.4419 135.809 75.6505C135.809 83.8591 129.142 90.4877 120.933 90.4492Z" fill="#EBECF0"/>
<path d="M120.933 110.682C119.815 110.682 118.659 110.682 117.503 110.643C115.229 110.605 113.341 108.87 112.917 106.404C112.647 104.94 112.416 103.591 112.223 102.242C112.223 102.203 112.223 102.165 112.223 102.126C112.223 102.088 112.185 102.011 112.108 102.011C111.144 101.664 110.219 101.278 109.333 100.893L108.446 100.508C107.252 101.394 106.019 102.28 104.978 103.013C102.666 104.631 100.199 104.477 98.2338 102.512C96.8464 101.163 95.4976 99.8139 94.1487 98.4266C92.2604 96.5382 92.0291 94.0332 93.5707 91.8365C94.38 90.6804 95.2278 89.5242 96.0756 88.3681L96.1142 88.3296C95.5746 87.1734 94.9966 85.8631 94.4956 84.5143V84.4757H94.457C92.8384 84.206 91.1813 83.9362 89.6012 83.5894C87.5202 83.0884 86.0172 81.2771 85.9016 79.1189C85.8245 76.8837 85.8245 74.61 85.9016 72.3362C85.9786 70.0239 87.7899 68.097 90.2949 67.6731C91.6437 67.4804 93.0311 67.2492 94.3414 66.9794C94.3414 66.9794 94.38 66.9794 94.38 66.9409C94.9195 65.7462 95.4205 64.4359 95.96 63.0485L93.455 59.503C91.9521 57.3448 92.0677 54.8784 93.8019 53.0671C95.382 51.3714 97.0391 49.8299 98.5806 48.3654C100.238 46.901 102.666 46.7468 104.477 47.9801C105.787 48.8279 107.059 49.7914 108.292 50.6777L108.331 50.6392C109.564 50.0997 110.797 49.5601 112.108 49.0591L112.185 49.0206C112.185 49.0206 112.185 49.0206 112.185 48.9821C112.185 48.9435 112.185 48.9435 112.185 48.9435C112.262 48.5581 112.3 48.1728 112.377 47.8259C112.57 46.6312 112.763 45.398 113.032 44.2033C113.533 42.0452 115.422 40.4651 117.657 40.388C119.815 40.3495 121.935 40.3495 124.131 40.388C126.559 40.4651 128.563 42.2764 128.949 44.6658L129.642 48.7894C129.642 48.8279 129.642 48.8279 129.642 48.8664L129.72 48.905C131.107 49.4445 132.456 49.984 133.65 50.5236L133.727 50.5621L133.805 50.5236C134.922 49.7143 136.04 48.905 137.196 48.0957C139.508 46.5156 142.052 46.7468 144.017 48.7123L145.135 49.7914C146.214 50.8704 147.37 51.988 148.411 53.1442C149.836 54.7628 150.029 57.1522 148.834 58.9634C148.141 60.0425 147.331 61.1216 146.599 62.1621L146.137 62.8173L146.098 62.8558C146.137 62.8943 146.137 62.9329 146.137 62.9714C146.676 64.1661 147.177 65.3993 147.64 66.594C147.64 66.6325 147.678 66.6711 147.678 66.7096C147.717 66.7867 147.794 66.8252 147.871 66.8252H147.91L148.102 66.8638C149.528 67.095 151.031 67.3262 152.496 67.6345C154.615 68.1355 156.118 69.9854 156.195 72.1435C156.272 74.6485 156.272 76.9993 156.234 78.5409C156.118 80.9688 154.307 82.9728 151.918 83.2811C150.53 83.5508 149.143 83.7821 147.717 83.9747C147.678 83.9747 147.64 83.9747 147.601 84.0133V84.0518C147.177 85.1309 146.753 86.1714 146.329 87.1734L146.021 87.9056V87.9442L146.06 87.9827C146.83 89.0618 147.678 90.2179 148.488 91.3355C150.106 93.7249 149.875 96.307 147.871 98.2724C147.293 98.8505 146.715 99.4286 146.137 100.007C145.289 100.854 144.403 101.741 143.516 102.589C142.707 103.359 141.628 103.783 140.472 103.783C139.316 103.822 138.159 103.475 137.196 102.781C136.618 102.357 136.04 101.934 135.462 101.548C134.884 101.163 134.306 100.7 133.727 100.276H133.689C132.456 100.816 131.222 101.355 129.912 101.818H129.874C129.835 101.818 129.758 101.856 129.758 101.972V102.011C129.527 103.552 129.296 105.094 128.949 106.674C128.525 108.832 126.675 110.45 124.44 110.528C123.207 110.643 122.089 110.682 120.933 110.682ZM113.765 102.088C113.957 103.359 114.15 104.708 114.458 106.134C114.767 107.868 116.038 109.063 117.58 109.102C119.854 109.179 122.05 109.179 124.324 109.102C125.789 109.025 127.022 107.984 127.33 106.558C127.677 105.055 127.908 103.475 128.139 102.011C128.217 101.355 128.679 100.777 129.296 100.585C130.529 100.122 131.762 99.6213 132.957 99.0817C133.496 98.812 134.113 98.8505 134.575 99.2359C135.153 99.6598 135.731 100.045 136.271 100.469C136.811 100.893 137.427 101.317 138.005 101.741C138.699 102.203 139.508 102.473 140.318 102.435C141.05 102.435 141.782 102.126 142.321 101.625C143.169 100.816 144.056 99.9296 144.904 99.0817C145.482 98.5036 146.06 97.9256 146.638 97.3475C148.102 95.9216 148.256 94.1488 147.062 92.3761C146.291 91.2585 145.443 90.1409 144.672 89.0232C144.287 88.5608 144.248 87.9442 144.518 87.4046L144.826 86.711C145.25 85.709 145.674 84.707 146.06 83.705C146.252 83.0884 146.792 82.6644 147.447 82.5874C148.796 82.3947 150.183 82.1634 151.532 81.8937C153.228 81.701 154.5 80.3136 154.577 78.6179C154.615 77.1149 154.615 74.7641 154.538 72.2977C154.461 70.8332 153.42 69.6 151.995 69.2532C150.607 68.9448 149.143 68.7136 147.717 68.4824L147.524 68.4438C146.792 68.3668 146.175 67.8658 145.983 67.1721C145.559 66.0159 145.058 64.8598 144.557 63.7422C144.21 63.1641 144.287 62.4704 144.711 61.9694L145.173 61.3528C145.944 60.2738 146.676 59.3103 147.37 58.2312C148.179 56.998 148.064 55.4179 147.1 54.3003C146.098 53.1827 144.981 52.0651 143.902 50.986L142.784 49.8684C141.358 48.4425 139.585 48.2884 137.967 49.406C136.811 50.2153 135.693 51.0246 134.614 51.7953C134.113 52.2193 133.419 52.2963 132.841 51.9495C131.685 51.41 130.413 50.909 129.064 50.3694C128.448 50.2153 127.985 49.6757 127.947 49.0206L127.253 44.897C127.022 43.2399 125.634 41.9681 123.939 41.9296C121.819 41.891 119.7 41.891 117.541 41.9296C116 41.9681 114.69 43.0472 114.381 44.5502C114.112 45.7063 113.919 46.901 113.726 48.0571L113.533 49.1747C113.456 49.7914 113.032 50.3309 112.416 50.485C111.183 50.986 109.949 51.487 108.755 52.0266C108.215 52.3349 107.521 52.2578 107.059 51.8339C105.864 50.9475 104.631 50.0226 103.359 49.1747C102.126 48.3269 100.469 48.4425 99.3514 49.406C97.8484 50.7933 96.1913 52.3734 94.6883 53.992C93.4551 55.3023 93.378 56.9595 94.4956 58.501L97.0391 62.085L97.0776 62.1236C97.3089 62.509 97.3859 62.9714 97.2318 63.4339C96.6923 64.8983 96.1527 66.2472 95.5746 67.5189L95.5361 67.596C95.3434 67.9428 94.9966 68.2126 94.6112 68.3668C94.5727 68.3668 94.5341 68.3668 94.5341 68.4053C93.1467 68.6751 91.7208 68.9063 90.3335 69.099C88.5992 69.4073 87.3275 70.7176 87.2504 72.2977C87.1733 74.4943 87.1733 76.7296 87.2504 78.9262C87.3275 80.3907 88.3295 81.6239 89.7554 81.9322C91.2969 82.2791 92.9155 82.5488 94.5341 82.8186C95.1122 82.8957 95.6132 83.3196 95.8059 83.8591C96.3069 85.1694 96.8464 86.4027 97.3859 87.5203C97.6557 88.0598 97.6172 88.6764 97.2318 89.1389C96.4225 90.2565 95.5746 91.4126 94.7653 92.5688C93.6477 94.1488 93.8019 95.8445 95.1893 97.1934C96.5766 98.5422 97.8869 99.9296 99.2743 101.278C100.739 102.704 102.396 102.82 104.092 101.625C105.171 100.893 106.404 100.007 107.56 99.1203C107.984 98.7734 108.601 98.6963 109.102 98.9661L109.988 99.3515C110.874 99.7369 111.761 100.122 112.647 100.431C113.264 100.777 113.726 101.355 113.765 102.088ZM121.087 91.2199H120.933C116.732 91.1814 112.686 89.4857 109.757 86.4797C106.905 83.5894 105.325 79.6585 105.363 75.5734C105.363 66.9409 112.377 59.9654 121.01 60.004C129.642 60.004 136.618 67.0179 136.579 75.6505C136.579 79.8512 134.884 83.8206 131.916 86.7495C129.064 89.6013 125.172 91.2199 121.087 91.2199ZM120.971 61.7767C113.302 61.7767 107.059 67.9429 106.905 75.612C106.866 79.2731 108.254 82.8186 110.836 85.4007C113.495 88.1369 117.118 89.6784 120.933 89.6784C124.632 89.7169 128.178 88.2525 130.799 85.6704C136.31 80.3521 136.464 71.5269 131.145 66.0159C128.563 63.3183 124.979 61.8153 121.241 61.7767H120.971Z" fill="#093F68"/>
</svg>
