<svg width="216" height="133" viewBox="0 0 216 133" fill="none" xmlns="http://www.w3.org/2000/svg">
<g clip-path="url(#clip0_461_15793)">
<path d="M169.89 104.45H14.3399C14.1399 104.45 13.9399 104.3 13.9399 104.05C13.9399 103.8 14.0899 103.65 14.3399 103.65H169.89C170.09 103.65 170.29 103.8 170.29 104.05C170.29 104.3 170.09 104.45 169.89 104.45Z" fill="#D1D3D4"/>
<path d="M135.64 97.8H120.79C120.59 97.8 120.39 97.65 120.39 97.4C120.39 97.15 120.54 97 120.79 97H135.64C135.84 97 136.04 97.15 136.04 97.4C136.04 97.65 135.84 97.8 135.64 97.8Z" fill="#D1D3D4"/>
<path d="M50.5399 110.7H20.1399L21.5399 105.85L21.8399 104.95L23.4899 99.3L24.3399 96.55L26.0899 90.6L26.4399 89.35L28.3899 82.8L28.5899 82.2L30.3399 76.25L31.3399 72.85L32.8399 67.8L34.5399 62.05H36.1399L37.8399 67.8L38.6399 70.55L40.3399 76.25L41.0899 78.75L42.1399 82.2L42.6899 84.2L44.5899 90.6L45.1399 92.4L46.3899 96.55L46.7399 97.8L48.8399 104.95L49.1899 106.05L50.5399 110.7Z" fill="white"/>
<path d="M36.1401 62.05L37.8401 67.8L38.6401 70.5L40.3401 76.2L41.0901 78.75L42.0901 82.2L42.6901 84.2L44.5901 90.6L45.1401 92.4L46.3901 96.55L46.7901 97.8L48.8901 104.9L49.1901 106L50.5901 110.65H20.1401L21.5901 105.8L21.8401 104.85L23.4901 99.25L24.2901 96.5L26.0401 90.55L26.3901 89.35L28.3401 82.8L28.5401 82.15L30.2901 76.2L31.2901 72.85L32.7901 67.8L34.4901 62.05H36.1401ZM36.1901 61.35H34.5401C34.1901 61.35 33.9401 61.55 33.8401 61.9L32.1401 67.65L30.6401 72.7L29.6401 76.05L27.8401 82L27.6401 82.65L25.7401 89.15L25.3901 90.35L23.6401 96.3L22.8401 99.05L21.1901 104.65L20.9401 105.6L19.4901 110.45C19.4401 110.7 19.4401 110.9 19.5901 111.1C19.7401 111.3 19.9401 111.4 20.1901 111.4H50.6401C50.8901 111.4 51.0901 111.3 51.2401 111.1C51.3901 110.9 51.4401 110.65 51.3401 110.45L49.9401 105.8L49.6401 104.7L47.5401 97.55L47.1401 96.3L45.8901 92.15L45.3401 90.35L43.4401 83.95L42.8401 81.95L41.8401 78.5L41.0901 75.95L39.3901 70.25L38.5901 67.55L36.8901 61.8C36.7901 61.5 36.4901 61.3 36.1901 61.35Z" fill="#231F20"/>
<path d="M16.9899 110.7H53.6899C54.2899 110.7 54.7899 111.2 54.7899 111.8V113.9C54.7899 114.5 54.2899 115 53.6899 115H16.9899C16.3899 115 15.8899 114.5 15.8899 113.9V111.8C15.8899 111.2 16.3899 110.7 16.9899 110.7Z" fill="white"/>
<path d="M53.69 115.4H16.99C16.14 115.4 15.49 114.75 15.49 113.9V111.85C15.49 111 16.14 110.35 16.99 110.35H53.69C54.54 110.35 55.19 111 55.19 111.85V113.9C55.19 114.7 54.54 115.4 53.69 115.4ZM16.99 111.1C16.59 111.1 16.24 111.4 16.24 111.85V113.9C16.24 114.3 16.59 114.65 16.99 114.65H53.69C54.09 114.65 54.44 114.3 54.44 113.9V111.85C54.44 111.45 54.09 111.1 53.69 111.1H16.99Z" fill="#231F20"/>
<path d="M48.8401 104.95H21.8401L23.4901 99.3L24.3401 96.55H46.3901L46.7401 97.8L48.8401 104.95Z" fill="#D1D3D4"/>
<path d="M44.5901 90.6H26.0901L26.4401 89.35L28.3901 82.8L28.5901 82.2H42.1401L42.6901 84.2L44.5901 90.6Z" fill="#D1D3D4"/>
<path d="M40.3401 76.25H30.3401L31.3401 72.85L32.8401 67.8H37.8401L38.6401 70.55L40.3401 76.25Z" fill="#D1D3D4"/>
<path d="M93.3399 128.75L134.69 129C134.99 129 135.24 128.75 135.24 128.45C135.24 128.25 135.14 128.05 134.94 127.95C132.49 126.65 129.89 125.65 127.24 124.9L94.0399 125L92.5399 127.3C92.2399 127.75 92.3899 128.35 92.8399 128.65C92.9899 128.7 93.1399 128.75 93.3399 128.75Z" fill="white"/>
<path d="M134.69 129.4L93.34 129.15C92.59 129.15 91.99 128.55 91.99 127.8C91.99 127.55 92.09 127.3 92.19 127.05L93.69 124.75C93.74 124.65 93.89 124.6 93.99 124.6L127.24 124.5C127.24 124.5 127.29 124.5 127.34 124.5C130.04 125.25 132.64 126.3 135.14 127.6C135.59 127.85 135.79 128.4 135.54 128.85C135.34 129.15 135.04 129.35 134.69 129.4ZM93.34 128.4L134.69 128.65C134.79 128.65 134.84 128.6 134.84 128.5C134.89 128.4 134.84 128.35 134.74 128.3C132.34 127.05 129.79 126.05 127.14 125.3L94.19 125.4L92.79 127.55C92.59 127.8 92.69 128.2 92.94 128.35C93.14 128.35 93.24 128.4 93.34 128.4Z" fill="#231F20"/>
<path d="M94.0401 125L127.24 124.9C127.24 124.9 124.99 112.3 117.79 108.35C110.59 104.4 101.84 106.55 97.59 113.45C93.34 120.35 94.0401 125 94.0401 125Z" fill="white"/>
<path d="M94.04 125.35C93.84 125.35 93.69 125.2 93.69 125.05C93.64 124.85 92.99 120.2 97.29 113.25C101.59 106.3 110.54 103.95 117.99 108C125.29 111.95 127.54 124.3 127.64 124.8C127.64 124.9 127.64 125 127.54 125.1C127.49 125.2 127.34 125.25 127.24 125.25L94.04 125.35ZM110.24 106.75C105.19 106.75 100.54 109.35 97.94 113.65C94.44 119.35 94.34 123.5 94.44 124.65L126.84 124.55C126.34 122.3 123.89 112.1 117.69 108.7C115.39 107.45 112.84 106.75 110.24 106.75Z" fill="#231F20"/>
<path d="M122.64 120.15C122.49 120.15 122.34 120.05 122.29 119.95C120.14 115.3 116.54 111.45 112.04 109C111.84 108.9 111.79 108.7 111.84 108.5C111.94 108.3 112.14 108.25 112.34 108.3C117.04 110.8 120.79 114.75 122.99 119.6C123.09 119.8 122.99 120 122.79 120.1C122.74 120.15 122.69 120.15 122.64 120.15Z" fill="#D1D3D4"/>
<path d="M125.09 124.9L125.04 120.5L128.49 120.4L129.04 125.25L125.09 124.9Z" fill="white"/>
<path d="M129.04 125.6L125.09 125.25C124.89 125.25 124.74 125.05 124.74 124.9L124.69 120.5C124.69 120.3 124.84 120.15 125.04 120.1L128.49 120C128.69 120 128.84 120.15 128.89 120.35L129.44 125.2C129.44 125.3 129.39 125.4 129.34 125.5C129.24 125.6 129.14 125.6 129.04 125.6ZM125.49 124.55L128.64 124.85L128.19 120.8L125.44 120.9L125.49 124.55Z" fill="#231F20"/>
<path d="M119.34 120.85C119.19 120.85 119.04 120.75 118.99 120.65C114.99 112.25 107.54 110.3 107.44 110.3C107.24 110.25 107.14 110.05 107.14 109.85C107.19 109.65 107.39 109.55 107.59 109.6C107.69 109.6 115.49 111.65 119.64 120.35C119.74 120.55 119.64 120.75 119.44 120.85C119.44 120.85 119.39 120.85 119.34 120.85Z" fill="#D1D3D4"/>
<path d="M198.79 36.9C198.54 36.9 198.24 36.9 197.99 36.85C194.84 36.3 192.84 32.55 193.54 28.45C193.54 28.35 193.59 28.25 193.69 28.2C193.79 28.15 193.89 28.1 193.99 28.15L204.79 30.1C204.89 30.1 204.99 30.15 205.04 30.25C205.09 30.35 205.14 30.45 205.09 30.55C204.39 34.2 201.69 36.9 198.79 36.9ZM194.19 28.95C193.69 32.45 195.39 35.6 198.09 36.1C200.79 36.6 203.44 34.2 204.24 30.75L194.19 28.95Z" fill="#231F20"/>
<path d="M194.292 26.2221L193.886 28.486L204.664 30.4198L205.07 28.1559L194.292 26.2221Z" fill="#231F20"/>
<path d="M204.69 30.8H204.64L193.89 28.85C193.69 28.8 193.54 28.6 193.59 28.4L193.99 26.1C194.04 25.9 194.24 25.75 194.44 25.8L205.19 27.75C205.39 27.8 205.54 28 205.49 28.2L205.09 30.5C205.09 30.6 205.04 30.7 204.94 30.75C204.84 30.8 204.74 30.8 204.69 30.8ZM194.34 28.2L204.39 30L204.64 28.45L194.59 26.65L194.34 28.2Z" fill="#231F20"/>
<path d="M196.43 35.5434L186.469 91.0579L189.915 91.676L199.875 36.1615L196.43 35.5434Z" fill="white"/>
<path d="M189.89 92H189.84L186.39 91.4C186.19 91.35 186.04 91.15 186.09 90.95L196.04 35.45C196.04 35.35 196.09 35.25 196.19 35.2C196.29 35.15 196.39 35.1 196.49 35.15L199.94 35.75C200.14 35.8 200.29 36 200.24 36.2L190.29 91.7C190.29 91.8 190.24 91.9 190.14 91.95C190.04 92 189.99 92 189.89 92ZM186.89 90.7L189.59 91.2L199.39 36.45L196.69 35.95L186.89 90.7Z" fill="#231F20"/>
<path d="M177.64 112.55H193.94C195.64 110.9 196.74 108.75 197.14 106.4L199.19 95.05L176.44 90.95L174.39 102.3C173.74 106.1 174.94 109.9 177.64 112.55Z" fill="white"/>
<path d="M193.89 112.95H177.59C177.49 112.95 177.39 112.9 177.34 112.85C174.59 110.1 173.34 106.15 173.99 102.3L176.04 90.95C176.09 90.75 176.29 90.5999 176.49 90.6499L199.24 94.7C199.44 94.75 199.59 94.9499 199.54 95.1499L197.49 106.5C197.09 108.9 195.89 111.1 194.19 112.85C194.09 112.9 193.99 112.95 193.89 112.95ZM177.79 112.2H193.74C195.29 110.6 196.34 108.6 196.74 106.4L198.69 95.3999L176.69 91.45L174.69 102.45C174.09 106 175.24 109.65 177.79 112.2Z" fill="#231F20"/>
<path d="M183.44 90.5L192.79 92.2L192.14 95.85C191.79 97.9 189.79 99.3 187.74 98.9L185.89 98.55C183.84 98.2 182.44 96.2 182.84 94.15L183.44 90.5Z" fill="white"/>
<path d="M188.39 99.3C188.14 99.3 187.89 99.3 187.64 99.25L185.74 98.9C183.49 98.5 181.94 96.35 182.39 94.05L183.04 90.4C183.04 90.3 183.09 90.2 183.19 90.15C183.29 90.1 183.39 90.05 183.49 90.1L192.84 91.8C193.04 91.85 193.19 92.05 193.14 92.25L192.49 95.9C192.14 97.85 190.39 99.3 188.39 99.3ZM183.74 90.9L183.14 94.15C182.79 96 184.04 97.8 185.89 98.15L187.74 98.5C189.59 98.85 191.39 97.6 191.69 95.75L192.29 92.5L183.74 90.9Z" fill="#231F20"/>
<path d="M186.084 88.333L185.625 90.8922L190.793 91.8194L191.252 89.2602L186.084 88.333Z" fill="white"/>
<path d="M190.79 92.2H190.74L185.59 91.25C185.49 91.25 185.39 91.2 185.34 91.1C185.29 91 185.24 90.9 185.29 90.8L185.74 88.2C185.79 88 185.99 87.8499 186.19 87.8999L191.34 88.85C191.44 88.85 191.54 88.9 191.59 89C191.64 89.1 191.69 89.2 191.64 89.3L191.19 91.8999C191.09 92.0499 190.94 92.2 190.79 92.2ZM186.04 90.55L190.49 91.35L190.84 89.5L186.39 88.7L186.04 90.55Z" fill="#231F20"/>
<path d="M185.04 108.7H184.99C184.79 108.65 184.64 108.45 184.69 108.25L186.19 99.75C186.24 99.55 186.44 99.4 186.64 99.45C186.84 99.5 186.99 99.7 186.94 99.9L185.44 108.4C185.39 108.55 185.24 108.65 185.04 108.7Z" fill="#D1D3D4"/>
<path d="M206.19 112.95H138.59C138.39 112.95 138.19 112.8 138.19 112.55C138.19 112.3 138.34 112.15 138.59 112.15H206.14C206.34 112.15 206.54 112.3 206.54 112.55C206.54 112.8 206.39 112.95 206.19 112.95Z" fill="#D1D3D4"/>
<path d="M142.94 130.1H86.39C86.19 130.1 85.99 129.95 85.99 129.7C85.99 129.45 86.14 129.3 86.39 129.3H142.94C143.14 129.3 143.34 129.45 143.34 129.7C143.34 129.95 143.14 130.1 142.94 130.1Z" fill="#D1D3D4"/>
<path d="M83.24 130.1H79.39C79.19 130.1 78.99 129.95 78.99 129.7C78.99 129.45 79.14 129.3 79.39 129.3H83.24C83.44 129.3 83.64 129.45 83.64 129.7C83.64 129.95 83.44 130.1 83.24 130.1Z" fill="#D1D3D4"/>
<path d="M81.3399 125.2H50.5899C50.3899 125.2 50.1899 125.05 50.1899 124.8C50.1899 124.55 50.3399 124.4 50.5899 124.4H81.3399C81.5399 124.4 81.7399 124.55 81.7399 124.8C81.7399 125.05 81.5399 125.2 81.3399 125.2Z" fill="#D1D3D4"/>
<path d="M86.3899 116.15H9.28989C9.08989 116.15 8.88989 116 8.88989 115.75C8.88989 115.5 9.03989 115.35 9.28989 115.35H86.3399C86.5399 115.35 86.7399 115.5 86.7399 115.75C86.7399 116 86.5899 116.15 86.3899 116.15Z" fill="#D1D3D4"/>
<path d="M172.39 125.2H145.29C145.09 125.2 144.89 125.05 144.89 124.8C144.89 124.55 145.04 124.4 145.29 124.4H172.39C172.59 124.4 172.79 124.55 172.79 124.8C172.79 125.05 172.59 125.2 172.39 125.2Z" fill="#D1D3D4"/>
<path d="M133.69 108.7H127.69C127.49 108.7 127.29 108.55 127.29 108.3C127.29 108.05 127.44 107.9 127.69 107.9H133.69C133.89 107.9 134.09 108.05 134.09 108.3C134.09 108.55 133.89 108.7 133.69 108.7Z" fill="#D1D3D4"/>
<path d="M188.44 120.75H182.89C182.69 120.75 182.49 120.6 182.49 120.35C182.49 120.1 182.64 119.95 182.89 119.95H188.44C188.64 119.95 188.84 120.1 188.84 120.35C188.84 120.6 188.64 120.75 188.44 120.75Z" fill="#D1D3D4"/>
<path d="M34.9398 124.45H25.6898C25.4898 124.45 25.2898 124.3 25.2898 124.05C25.2898 123.8 25.4398 123.65 25.6898 123.65H34.9398C35.1398 123.65 35.3398 123.8 35.3398 124.05C35.3398 124.3 35.1898 124.45 34.9398 124.45Z" fill="#D1D3D4"/>
<path d="M62.19 8.79999H73.24C73.94 8.79999 74.54 9.29999 74.59 9.99999L75.74 20.7H59.74L60.89 9.99999C60.89 9.29999 61.49 8.79999 62.19 8.79999Z" fill="#5E6C84"/>
<path d="M73.9399 24.65H61.4399V121.95H73.9399V24.65Z" fill="white"/>
<path d="M73.94 122.35H61.44C61.24 122.35 61.04 122.2 61.04 121.95V24.65C61.04 24.45 61.19 24.3 61.44 24.25H73.94C74.14 24.25 74.29 24.4 74.34 24.65V121.95C74.34 122.15 74.19 122.35 73.94 122.35ZM61.84 121.6H73.59V25.05H61.84V121.6Z" fill="#231F20"/>
<path d="M76.49 20.7H58.49V24.65H76.49V20.7Z" fill="white"/>
<path d="M76.4901 25.05H58.4901C58.2901 25.05 58.0901 24.9 58.0901 24.65V20.7C58.0901 20.5 58.2401 20.3 58.4901 20.3H76.4901C76.6901 20.3 76.8901 20.45 76.8901 20.7V24.65C76.8901 24.85 76.6901 25.05 76.4901 25.05ZM58.8401 24.3H76.0901V21.1H58.8401V24.3Z" fill="#231F20"/>
<path d="M73.9401 11.4H69.7401C69.5401 11.4 69.3401 11.25 69.3401 11C69.3401 10.75 69.4901 10.6 69.7401 10.6H73.9401C74.1401 10.6 74.3401 10.75 74.3401 11C74.3401 11.25 74.1901 11.4 73.9401 11.4Z" fill="white"/>
<path d="M77.24 117.9H57.79V124.1H77.24V117.9Z" fill="white"/>
<path d="M77.2401 124.45H57.7901C57.5901 124.45 57.4401 124.3 57.3901 124.05V117.85C57.3901 117.65 57.5401 117.45 57.7901 117.45H77.2401C77.4401 117.45 77.6401 117.6 77.6401 117.85V124.05C77.5901 124.3 77.4401 124.45 77.2401 124.45ZM58.1401 123.7H76.8401V118.25H58.1401V123.7Z" fill="#231F20"/>
<path d="M152.84 8.79999H163.89C164.59 8.79999 165.14 9.29999 165.24 9.99999L166.39 20.7H150.39L151.54 9.99999C151.54 9.29999 152.14 8.79999 152.84 8.79999Z" fill="#5E6C84"/>
<path d="M164.59 24.65H152.09V121.95H164.59V24.65Z" fill="white"/>
<path d="M164.64 122.35H152.14C151.94 122.35 151.79 122.2 151.74 122V24.65C151.74 24.45 151.89 24.25 152.14 24.25H164.64C164.84 24.25 164.99 24.4 165.04 24.65V121.95C164.99 122.15 164.84 122.35 164.64 122.35ZM152.49 121.6H164.24V25.05H152.49V121.6Z" fill="#231F20"/>
<path d="M167.14 20.7H149.14V24.65H167.14V20.7Z" fill="white"/>
<path d="M167.14 25.05H149.14C148.94 25.05 148.74 24.9 148.74 24.65V20.7C148.74 20.5 148.89 20.3 149.14 20.3H167.14C167.34 20.3 167.49 20.45 167.54 20.65V24.6C167.54 24.85 167.39 25 167.14 25.05ZM149.49 24.3H166.74V21.1H149.49V24.3Z" fill="#231F20"/>
<path d="M164.64 11.4H160.39C160.19 11.4 159.99 11.25 159.99 11C159.99 10.75 160.14 10.6 160.39 10.6H164.64C164.84 10.6 165.04 10.75 165.04 11C165.04 11.25 164.84 11.4 164.64 11.4Z" fill="white"/>
<path d="M167.89 117.9H148.44V124.1H167.89V117.9Z" fill="white"/>
<path d="M167.89 124.45H148.44C148.24 124.45 148.09 124.3 148.04 124.05V117.85C148.04 117.65 148.19 117.45 148.44 117.45H167.89C168.09 117.45 168.24 117.6 168.29 117.8V124C168.24 124.3 168.09 124.45 167.89 124.45ZM148.79 123.7H167.49V118.25H148.79V123.7Z" fill="#231F20"/>
<path d="M172.39 31.15H54.79V53.4H172.39V31.15Z" fill="white"/>
<path d="M172.39 31.15V53.4H54.79V31.15H172.39ZM172.39 30.4H54.79C54.39 30.4 54.04 30.75 54.04 31.15V53.4C54.04 53.8 54.39 54.15 54.79 54.15H172.39C172.79 54.15 173.14 53.8 173.14 53.4V31.15C173.14 30.75 172.79 30.4 172.39 30.4Z" fill="#231F20"/>
<path d="M88.5901 53.4H71.9901L57.3901 31.15H73.9901L88.5901 53.4Z" fill="#D1D3D4"/>
<path d="M118.94 53.4H102.29L87.74 31.15H104.34L118.94 53.4Z" fill="#D1D3D4"/>
<path d="M149.29 53.4H132.69L118.09 31.15H134.69L149.29 53.4Z" fill="#D1D3D4"/>
<path d="M172.39 42.35V53.4H162.99L148.44 31.15H165.04L172.39 42.35Z" fill="#D1D3D4"/>
<path d="M172.39 70.4H54.79V92.65H172.39V70.4Z" fill="white"/>
<path d="M172.39 70.4V92.65H54.79V70.4H172.39ZM172.39 69.65H54.79C54.39 69.65 54.04 70 54.04 70.4V92.65C54.04 93.05 54.39 93.4 54.79 93.4H172.39C172.79 93.4 173.14 93.05 173.14 92.65V70.4C173.14 70 172.79 69.65 172.39 69.65Z" fill="#231F20"/>
<path d="M88.5901 92.65H71.9901L57.3901 70.4H73.9901L88.5901 92.65Z" fill="#D1D3D4"/>
<path d="M118.94 92.65H102.29L87.74 70.4H104.34L118.94 92.65Z" fill="#D1D3D4"/>
<path d="M149.29 92.65H132.69L118.09 70.4H134.69L149.29 92.65Z" fill="#D1D3D4"/>
<path d="M172.39 81.6V92.65H162.99L148.44 70.4H165.04L172.39 81.6Z" fill="#D1D3D4"/>
<path d="M61.4399 64L73.9399 61.55V53.95H61.4399V64Z" fill="#231F20"/>
<path d="M61.44 64.4C61.34 64.4 61.29 64.35 61.19 64.3C61.09 64.25 61.04 64.15 61.04 64V53.95C61.04 53.75 61.19 53.6 61.39 53.6H73.89C74.09 53.6 74.24 53.75 74.24 53.95V61.55C74.24 61.75 74.09 61.9 73.94 61.9L61.44 64.35V64.4ZM61.84 54.3V63.55L73.59 61.25V54.3H61.84Z" fill="#231F20"/>
<path d="M152.09 58.25L164.64 55.7V53.95H152.09V58.25Z" fill="#231F20"/>
<path d="M152.09 58.6C151.89 58.6 151.74 58.45 151.69 58.25V53.95C151.69 53.75 151.84 53.6 152.04 53.55H164.54C164.74 53.55 164.94 53.7 164.94 53.95V55.7C164.94 55.9 164.79 56.05 164.64 56.05L152.14 58.6H152.09ZM152.49 54.3V57.8L164.24 55.4V54.3H152.49Z" fill="#231F20"/>
<path d="M61.4399 100.3L73.9399 98.3V93.35H61.4399V100.3Z" fill="#231F20"/>
<path d="M61.44 100.7C61.34 100.7 61.29 100.65 61.19 100.6C61.09 100.55 61.04 100.45 61.04 100.3V93.35C61.04 93.15 61.19 93 61.39 92.95H73.89C74.09 92.95 74.24 93.1 74.24 93.35V98.25C74.24 98.45 74.09 98.6 73.94 98.6L61.44 100.65V100.7ZM61.84 93.75V99.8999L73.59 98V93.75H61.84Z" fill="#231F20"/>
<path d="M152.09 97.45L164.64 95V93.1H152.09V97.45Z" fill="#231F20"/>
<path d="M152.09 97.8C151.99 97.8 151.94 97.75 151.84 97.7C151.74 97.65 151.69 97.5 151.69 97.4V93.05C151.69 92.85 151.84 92.7 152.04 92.65H164.54C164.74 92.65 164.94 92.8 164.94 93.05V94.95C164.94 95.15 164.79 95.3 164.64 95.3L152.14 97.75L152.09 97.8ZM152.49 93.45V97L164.24 94.7V93.45H152.49Z" fill="#231F20"/>
<path d="M142.94 43.6H83.24V82.65H142.94V43.6Z" fill="#5E6C84"/>
<path d="M142.94 43.6V82.65H83.24V43.6H142.94ZM142.94 42.9H83.24C82.84 42.9 82.49 43.25 82.49 43.65V82.7C82.49 83.1 82.84 83.45 83.24 83.45H142.94C143.34 83.45 143.69 83.1 143.69 82.7V43.65C143.69 43.2 143.39 42.9 142.94 42.9Z" fill="#231F20"/>
<path d="M98.74 62.2C98.59 62.7 98.34 63.2 97.99 63.6C97.64 64 97.24 64.3 96.79 64.5C95.79 64.95 94.64 64.95 93.69 64.5C93.24 64.3 92.84 64 92.49 63.6C92.14 63.2 91.89 62.7 91.74 62.2C91.54 61.6 91.49 61 91.49 60.4V53.6H93.59V60.2C93.59 60.5 93.64 60.75 93.69 61.05C93.74 61.3 93.84 61.55 93.99 61.75C94.24 62.2 94.74 62.45 95.29 62.45C95.54 62.45 95.84 62.4 96.04 62.25C96.24 62.15 96.44 61.95 96.54 61.75C96.69 61.55 96.79 61.3 96.84 61.05C96.89 60.75 96.94 60.5 96.94 60.2V53.6H99.04V60.4C98.99 61 98.94 61.6 98.74 62.2Z" fill="white"/>
<path d="M106.29 64.5L102.74 57.35L102.79 64.5H100.74V53.55H103.14L106.69 60.7H106.74L106.69 53.55H108.74V64.5H106.29Z" fill="white"/>
<path d="M118.74 59C118.74 59.85 118.64 60.7 118.29 61.5C118.04 62.15 117.64 62.75 117.14 63.2C116.69 63.65 116.14 64 115.54 64.2C114.99 64.4 114.34 64.5 113.74 64.5H110.44V53.55H113.64C114.24 53.55 114.89 53.65 115.49 53.8C116.09 54 116.64 54.3 117.09 54.7C117.59 55.15 117.99 55.75 118.24 56.4C118.64 57.25 118.74 58.1 118.74 59ZM116.54 59C116.54 58.5 116.49 57.95 116.29 57.45C116.14 57.1 115.94 56.75 115.64 56.5C115.39 56.25 115.04 56.1 114.74 56C114.39 55.9 114.04 55.85 113.69 55.85H112.64V62.25H113.64C113.99 62.25 114.39 62.2 114.74 62.1C115.09 62 115.39 61.8 115.69 61.55C115.99 61.25 116.19 60.95 116.34 60.55C116.44 60 116.54 59.5 116.54 59Z" fill="white"/>
<path d="M120.14 64.5V53.55H126.04V55.75H122.19V57.8H125.84V59.95H122.19V62.2H126.29V64.45H120.14V64.5Z" fill="white"/>
<path d="M132.39 64.5L130.49 60.15H129.74V64.5H127.69V53.55H131.04C131.44 53.55 131.89 53.6 132.29 53.7C132.69 53.8 133.04 54 133.39 54.25C133.74 54.5 133.99 54.85 134.14 55.25C134.34 55.75 134.44 56.3 134.44 56.8C134.44 57.45 134.29 58.1 133.94 58.65C133.64 59.15 133.14 59.55 132.59 59.75L134.89 64.45L132.39 64.5ZM132.29 56.9C132.29 56.7 132.24 56.45 132.14 56.25C132.04 56.1 131.94 55.95 131.79 55.9C131.64 55.8 131.49 55.75 131.34 55.7C131.19 55.65 130.99 55.65 130.84 55.65H129.74V58.2H130.74C130.94 58.2 131.09 58.2 131.29 58.15C131.49 58.1 131.64 58.05 131.79 57.95C131.94 57.85 132.09 57.7 132.14 57.55C132.24 57.4 132.29 57.15 132.29 56.9Z" fill="white"/>
<path d="M94.2401 72.55C93.9901 72.7 93.6901 72.75 93.3901 72.75C93.0901 72.75 92.8401 72.7 92.5901 72.55C92.3401 72.45 92.1401 72.25 91.9401 72.05C91.7401 71.8 91.5901 71.55 91.4901 71.25C91.3901 70.95 91.3401 70.6 91.3401 70.25C91.3401 69.9 91.3901 69.55 91.4901 69.25C91.5901 68.95 91.7401 68.7 91.9401 68.45C92.1401 68.25 92.3401 68.05 92.5901 67.95C93.0901 67.7 93.6901 67.7 94.1901 67.95C94.4401 68.05 94.6401 68.25 94.8401 68.45L94.2401 69.2C94.1401 69.05 94.0401 68.95 93.8901 68.9C93.7401 68.85 93.5901 68.8 93.4401 68.8C93.2901 68.8 93.1401 68.85 92.9901 68.9C92.8401 69 92.7401 69.1 92.6401 69.2C92.5401 69.35 92.4401 69.5 92.3901 69.65C92.3401 69.85 92.2901 70.05 92.2901 70.2C92.2901 70.4 92.2901 70.6 92.3901 70.8C92.4401 70.95 92.5401 71.1 92.6401 71.25C92.7401 71.35 92.8401 71.45 92.9901 71.55C93.1401 71.6 93.2901 71.65 93.4401 71.65C93.6401 71.65 93.7901 71.6 93.9401 71.5C94.0901 71.4 94.1901 71.3 94.2901 71.15L94.9401 71.9C94.7401 72.2 94.4901 72.4 94.2401 72.55Z" fill="white"/>
<path d="M99.24 70.25C99.24 70.6 99.19 70.95 99.09 71.25C98.99 71.55 98.84 71.8 98.64 72.05C98.44 72.25 98.24 72.45 97.99 72.55C97.74 72.65 97.44 72.75 97.14 72.75C96.84 72.75 96.59 72.7 96.29 72.55C96.04 72.45 95.79 72.25 95.64 72.05C95.44 71.8 95.29 71.55 95.19 71.25C95.09 70.95 95.04 70.6 95.04 70.25C95.04 69.9 95.09 69.55 95.19 69.25C95.29 68.95 95.44 68.7 95.64 68.5C95.84 68.3 96.04 68.1 96.29 68C96.54 67.9 96.84 67.8 97.14 67.8C97.44 67.8 97.74 67.85 97.99 68C98.24 68.1 98.49 68.3 98.64 68.5C98.84 68.7 98.99 69 99.09 69.25C99.19 69.55 99.24 69.9 99.24 70.25ZM98.24 70.25C98.24 70.05 98.19 69.85 98.14 69.7C98.09 69.55 98.04 69.4 97.94 69.25C97.84 69.15 97.74 69 97.59 68.95C97.29 68.8 96.99 68.8 96.69 68.95C96.54 69 96.44 69.15 96.34 69.25C96.24 69.4 96.14 69.55 96.14 69.7C96.09 69.9 96.04 70.1 96.04 70.25C96.04 70.45 96.09 70.65 96.14 70.85C96.19 71 96.29 71.15 96.34 71.3C96.44 71.4 96.54 71.55 96.69 71.6C96.99 71.75 97.29 71.75 97.59 71.6C97.74 71.5 97.84 71.4 97.94 71.3C98.04 71.15 98.14 71 98.19 70.85C98.24 70.65 98.24 70.45 98.24 70.25Z" fill="white"/>
<path d="M102.29 72.6L100.74 69.55V72.6H99.8401V67.9H100.89L102.44 70.95V67.9H103.34V72.6H102.29Z" fill="white"/>
<path d="M106.19 69.15C106.09 69.05 105.99 68.95 105.89 68.85C105.79 68.8 105.64 68.75 105.54 68.75C105.49 68.75 105.39 68.75 105.34 68.75C105.29 68.75 105.24 68.8 105.19 68.85C105.14 68.9 105.09 68.95 105.04 69C104.99 69.05 104.99 69.15 104.99 69.2C104.99 69.25 104.99 69.35 105.04 69.4C105.09 69.45 105.09 69.5 105.14 69.55C105.19 69.6 105.24 69.65 105.34 69.65L105.59 69.75L105.99 69.95C106.14 70 106.24 70.1 106.39 70.2C106.49 70.3 106.59 70.45 106.69 70.6C106.79 70.8 106.79 71 106.79 71.2C106.79 71.45 106.74 71.7 106.69 71.9C106.64 72.1 106.49 72.25 106.34 72.4C106.19 72.5 106.04 72.6 105.89 72.7C105.69 72.75 105.54 72.8 105.34 72.8C105.04 72.8 104.79 72.75 104.54 72.6C104.29 72.5 104.09 72.3 103.89 72.1L104.49 71.35C104.59 71.5 104.69 71.6 104.84 71.7C104.99 71.8 105.14 71.85 105.29 71.85C105.34 71.85 105.44 71.85 105.49 71.85C105.54 71.85 105.59 71.8 105.69 71.75C105.74 71.7 105.79 71.65 105.79 71.6C105.84 71.5 105.84 71.45 105.84 71.35C105.84 71.25 105.84 71.2 105.79 71.15C105.74 71.1 105.69 71.05 105.64 71C105.54 70.95 105.49 70.9 105.39 70.85L105.04 70.7C104.89 70.65 104.79 70.6 104.69 70.55C104.44 70.4 104.24 70.2 104.14 69.9C104.09 69.75 104.04 69.55 104.04 69.35C104.04 69.1 104.09 68.9 104.19 68.7C104.29 68.5 104.39 68.35 104.54 68.25C104.69 68.15 104.84 68.05 105.04 68C105.19 67.95 105.39 67.9 105.59 67.9C105.84 67.9 106.04 67.95 106.24 68.05C106.49 68.15 106.69 68.3 106.84 68.5L106.19 69.15Z" fill="white"/>
<path d="M108.94 68.9V72.6H107.99V68.9H106.89V67.95H109.99V68.9H108.94Z" fill="white"/>
<path d="M112.54 72.6L111.69 70.75H111.39V72.6H110.49V67.9H111.94C112.14 67.9 112.29 67.9 112.49 67.95C112.64 68 112.84 68.05 112.99 68.2C113.14 68.3 113.24 68.45 113.34 68.65C113.44 68.85 113.49 69.1 113.44 69.35C113.44 69.65 113.39 69.9 113.24 70.15C113.09 70.35 112.89 70.55 112.64 70.6L113.64 72.6H112.54ZM112.49 69.35C112.49 69.25 112.49 69.15 112.44 69.1C112.39 69.05 112.34 69 112.29 68.95C112.24 68.9 112.14 68.9 112.09 68.9C112.04 68.9 111.94 68.9 111.89 68.9H111.39V70H111.84C111.94 70 111.99 70 112.09 69.95C112.19 69.95 112.24 69.9 112.29 69.85C112.34 69.8 112.39 69.75 112.44 69.65C112.49 69.6 112.49 69.45 112.49 69.35Z" fill="white"/>
<path d="M117.24 71.6C117.19 71.8 117.04 72 116.89 72.2C116.74 72.35 116.59 72.5 116.39 72.6C116.19 72.7 115.94 72.75 115.69 72.75C115.44 72.75 115.24 72.7 114.99 72.6C114.79 72.5 114.64 72.35 114.49 72.2C114.34 72 114.24 71.8 114.19 71.6C114.09 71.35 114.09 71.1 114.09 70.85V67.9H115.04V70.75C115.04 70.85 115.04 71 115.09 71.1C115.09 71.2 115.14 71.3 115.19 71.4C115.24 71.5 115.34 71.55 115.44 71.6C115.54 71.65 115.64 71.7 115.79 71.65C115.89 71.65 116.04 71.65 116.14 71.6C116.24 71.55 116.29 71.45 116.39 71.4C116.44 71.3 116.49 71.2 116.49 71.1C116.49 71 116.54 70.85 116.54 70.75V67.9H117.49V70.85C117.39 71.1 117.34 71.35 117.24 71.6Z" fill="white"/>
<path d="M120.84 72.55C120.59 72.7 120.29 72.75 119.99 72.75C119.69 72.75 119.44 72.7 119.19 72.55C118.94 72.45 118.69 72.25 118.54 72.05C118.34 71.8 118.19 71.55 118.09 71.25C117.99 70.95 117.94 70.6 117.94 70.25C117.94 69.9 117.99 69.55 118.09 69.25C118.19 68.95 118.34 68.7 118.54 68.45C118.94 68 119.49 67.8 120.04 67.8C120.34 67.8 120.59 67.85 120.84 68C121.09 68.1 121.29 68.3 121.49 68.5L120.84 69.25C120.74 69.1 120.64 69 120.49 68.95C120.34 68.9 120.19 68.85 120.04 68.85C119.89 68.85 119.74 68.9 119.59 68.95C119.44 69 119.34 69.15 119.24 69.25C119.14 69.4 119.04 69.55 118.99 69.7C118.94 69.9 118.89 70.1 118.89 70.25C118.89 70.45 118.94 70.65 118.99 70.85C119.04 71 119.09 71.15 119.24 71.3C119.34 71.4 119.44 71.5 119.59 71.6C119.74 71.65 119.89 71.7 120.04 71.7C120.24 71.7 120.39 71.65 120.54 71.55C120.69 71.45 120.79 71.35 120.89 71.2L121.54 71.95C121.34 72.2 121.09 72.4 120.84 72.55Z" fill="white"/>
<path d="M123.49 68.9V72.6H122.54V68.9H121.44V67.95H124.54V68.9H123.49Z" fill="white"/>
<path d="M124.99 72.6V67.9H125.94V72.6H124.99Z" fill="white"/>
<path d="M130.74 70.25C130.74 70.6 130.69 70.95 130.59 71.25C130.49 71.55 130.34 71.8 130.14 72.05C129.94 72.25 129.74 72.45 129.49 72.55C129.24 72.65 128.94 72.75 128.64 72.75C128.34 72.75 128.09 72.7 127.79 72.55C127.54 72.45 127.29 72.25 127.14 72.05C126.94 71.8 126.79 71.55 126.69 71.25C126.59 70.95 126.54 70.6 126.54 70.25C126.54 69.9 126.59 69.55 126.69 69.25C126.79 68.95 126.94 68.7 127.14 68.5C127.34 68.3 127.54 68.1 127.79 68C128.04 67.9 128.34 67.8 128.64 67.8C128.94 67.8 129.24 67.85 129.49 68C129.74 68.1 129.99 68.3 130.14 68.5C130.34 68.7 130.49 69 130.59 69.25C130.69 69.55 130.74 69.9 130.74 70.25ZM129.74 70.25C129.74 70.05 129.69 69.85 129.64 69.7C129.59 69.55 129.54 69.4 129.39 69.25C129.29 69.15 129.19 69 129.04 68.95C128.74 68.8 128.44 68.8 128.14 68.95C127.99 69 127.89 69.15 127.79 69.25C127.69 69.4 127.59 69.55 127.54 69.7C127.49 69.9 127.44 70.1 127.44 70.25C127.44 70.45 127.49 70.65 127.54 70.85C127.59 71 127.64 71.15 127.79 71.3C127.89 71.4 127.99 71.55 128.14 71.6C128.29 71.65 128.44 71.7 128.59 71.7C128.74 71.7 128.89 71.65 129.04 71.6C129.19 71.55 129.29 71.4 129.39 71.3C129.49 71.15 129.59 71 129.64 70.85C129.74 70.65 129.74 70.45 129.74 70.25Z" fill="white"/>
<path d="M133.84 72.6L132.29 69.55V72.6H131.39V67.9H132.44L133.99 70.95V67.9H134.89V72.6H133.84Z" fill="white"/>
<path d="M142.94 44C142.89 44 142.84 44 142.79 43.95L113.09 29.8L83.3901 43.95C83.1901 44.05 82.9901 43.95 82.8901 43.75C82.7901 43.55 82.8901 43.35 83.0901 43.25L112.94 29C113.04 28.95 113.14 28.95 113.24 29L143.09 43.25C143.29 43.35 143.34 43.55 143.29 43.75C143.24 43.9 143.09 44 142.94 44Z" fill="#231F20"/>
<path d="M113.09 30.9C112.89 30.9 112.69 30.75 112.69 30.5V26.85C112.69 26.65 112.84 26.45 113.09 26.45C113.34 26.45 113.49 26.6 113.49 26.85V30.5C113.49 30.75 113.29 30.9 113.09 30.9Z" fill="#231F20"/>
<path d="M114.34 27H111.94C111.74 27 111.54 26.85 111.54 26.6C111.54 26.35 111.69 26.2 111.94 26.2H114.34C114.54 26.2 114.74 26.35 114.74 26.6C114.74 26.85 114.59 27 114.34 27Z" fill="#231F20"/>
</g>
<defs>
<clipPath id="clip0_461_15793">
<rect width="214.52" height="132.144" fill="white" transform="translate(0.73999)"/>
</clipPath>
</defs>
</svg>
